<svg xmlns="http://www.w3.org/2000/svg" xmlns:svg="http://www.w3.org/2000/svg" xmlns:xlink="http://www.w3.org/1999/xlink" id="svg2" width="20" height="20" version="1.0" style="display:inline;enable-background:new"><defs id="defs4"><linearGradient id="linearGradient9487"><stop id="stop9489" offset="0" style="stop-color:#999;stop-opacity:1"/><stop id="stop9491" offset="1" style="stop-color:#171717;stop-opacity:1"/></linearGradient><linearGradient id="linearGradient9064"><stop style="stop-color:#939393;stop-opacity:1" id="stop9066" offset="0"/><stop style="stop-color:#000;stop-opacity:1" id="stop9068" offset="1"/></linearGradient><linearGradient id="linearGradient8903"><stop style="stop-color:#5f5f5f;stop-opacity:1" id="stop8905" offset="0"/><stop id="stop8913" offset=".375" style="stop-color:#b7b7b7;stop-opacity:1"/><stop style="stop-color:#323232;stop-opacity:1" id="stop8907" offset="1"/></linearGradient><linearGradient id="linearGradient8185"><stop style="stop-color:#d8d8d8;stop-opacity:1" id="stop8187" offset="0"/><stop style="stop-color:#8a8a8a;stop-opacity:0" id="stop8189" offset="1"/></linearGradient><linearGradient id="linearGradient8166"><stop style="stop-color:#08a;stop-opacity:1" id="stop8168" offset="0"/><stop style="stop-color:#d5f6ff;stop-opacity:1" id="stop8170" offset="1"/></linearGradient><linearGradient id="linearGradient8149"><stop style="stop-color:#040081;stop-opacity:1" id="stop8151" offset="0"/><stop style="stop-color:#6965ff;stop-opacity:1" id="stop8153" offset="1"/></linearGradient><linearGradient id="linearGradient8050"><stop style="stop-color:#a02c2c;stop-opacity:1" id="stop8052" offset="0"/><stop style="stop-color:#ff0b0b;stop-opacity:1" id="stop8054" offset="1"/></linearGradient><linearGradient id="linearGradient4164"><stop id="stop4166" offset="0" style="stop-color:#fff;stop-opacity:1"/><stop id="stop4168" offset="1" style="stop-color:#fff;stop-opacity:0"/></linearGradient><linearGradient id="linearGradient3242"><stop id="stop3244" offset="0" style="stop-color:#c6e9af;stop-opacity:1"/><stop id="stop3246" offset="1" style="stop-color:#447821;stop-opacity:1"/></linearGradient><linearGradient id="linearGradient3329"><stop style="stop-color:#000;stop-opacity:1" id="stop3331" offset="0"/><stop style="stop-color:#404040;stop-opacity:1" id="stop3333" offset="1"/></linearGradient><linearGradient id="linearGradient3312"><stop id="stop3314" offset="0" style="stop-color:#ec4200;stop-opacity:1"/><stop style="stop-color:#ec2b00;stop-opacity:1" id="stop3320" offset=".5"/><stop id="stop3316" offset="1" style="stop-color:#face00;stop-opacity:1"/></linearGradient><linearGradient id="linearGradient3227"><stop id="stop3229" offset="0" style="stop-color:#fff;stop-opacity:1"/><stop id="stop3231" offset="1" style="stop-color:#000;stop-opacity:1"/></linearGradient><linearGradient id="linearGradient3169"><stop id="stop3171" offset="0" style="stop-color:#f4f4f4;stop-opacity:1"/><stop style="stop-color:#e0e0e0;stop-opacity:1" id="stop4158" offset=".5"/><stop id="stop3173" offset="1" style="stop-color:#9e9e9e;stop-opacity:1"/></linearGradient><linearGradient id="linearGradient3161"><stop id="stop3163" offset="0" style="stop-color:#888a85;stop-opacity:1"/><stop id="stop3165" offset="1" style="stop-color:#888a85;stop-opacity:0"/></linearGradient><radialGradient id="radialGradient3233" cx="9.332" cy="9.658" r="7.075" fx="9.332" fy="9.658" gradientTransform="matrix(0.6744495,1.011674,-0.8480598,0.5653733,11.228345,-5.2429421)" gradientUnits="userSpaceOnUse" xlink:href="#linearGradient3227"/><linearGradient id="linearGradient3273" x1="8" x2="12" y1="6" y2="6" gradientTransform="matrix(0.7614538,0.4101533,-0.4101533,0.7614538,5.7206622,-0.6279632)" gradientUnits="userSpaceOnUse" xlink:href="#linearGradient3227"/><radialGradient id="radialGradient3318" cx="15.719" cy="3.234" r="2.091" fx="15.719" fy="3.234" gradientTransform="matrix(1.7779835,0,0,1.8444152,-12.793148,-1.4811553)" gradientUnits="userSpaceOnUse" xlink:href="#linearGradient3312"/><radialGradient id="radialGradient3831" cx="7.829" cy="1.372" r="9.5" fx="7.829" fy="1.372" gradientTransform="matrix(0,1.5789474,-1.4736842,0,12.021549,-7.3616342)" gradientUnits="userSpaceOnUse" xlink:href="#linearGradient3169"/><linearGradient id="linearGradient4170" x1="10" x2="10" y1="3" y2="14" gradientTransform="translate(9.375e-2,-0.84375)" gradientUnits="userSpaceOnUse" xlink:href="#linearGradient4164"/><filter id="filter4260"><feGaussianBlur id="feGaussianBlur4262" stdDeviation=".63"/></filter><filter id="filter5792" width="1.204" height="1.181" x="-.102" y="-.091"><feGaussianBlur id="feGaussianBlur5794" stdDeviation=".545"/></filter><linearGradient id="linearGradient8056" x1="4" x2="16" y1="4" y2="16" gradientUnits="userSpaceOnUse" xlink:href="#linearGradient8050"/><filter id="filter8136"><feGaussianBlur id="feGaussianBlur8138" stdDeviation=".659"/></filter><linearGradient id="linearGradient8155" x1="4" x2="16" y1="4" y2="16" gradientUnits="userSpaceOnUse" xlink:href="#linearGradient8149"/><linearGradient id="linearGradient8172" x1="4" x2="16" y1="4" y2="16" gradientUnits="userSpaceOnUse" xlink:href="#linearGradient8166"/><filter id="filter8413" width="1.211" height="1.141" x="-.106" y="-.07"><feGaussianBlur id="feGaussianBlur8415" stdDeviation=".528"/></filter><filter id="filter8572" width="1.226" height="1.316" x="-.113" y="-.158"><feGaussianBlur id="feGaussianBlur8574" stdDeviation=".659"/></filter><filter id="filter8593"><feGaussianBlur id="feGaussianBlur8595" stdDeviation=".472"/></filter><filter id="filter8617"><feGaussianBlur id="feGaussianBlur8619" stdDeviation=".63"/></filter><filter id="filter8704"><feGaussianBlur id="feGaussianBlur8706" stdDeviation=".318"/></filter><linearGradient id="linearGradient9517" x1="1" x2="19" y1="1" y2="19" gradientUnits="userSpaceOnUse" xlink:href="#linearGradient9487"/><linearGradient id="linearGradient9527" x1="18" x2="0" y1="20" y2="2" gradientUnits="userSpaceOnUse" xlink:href="#linearGradient9487"/><linearGradient id="linearGradient9538" x1="1" x2="19" y1="1" y2="19" gradientUnits="userSpaceOnUse" xlink:href="#linearGradient9487"/><linearGradient id="linearGradient9540" x1="18" x2="0" y1="20" y2="2" gradientUnits="userSpaceOnUse" xlink:href="#linearGradient9487"/><linearGradient id="linearGradient9543" x1="1" x2="19" y1="1" y2="19" gradientUnits="userSpaceOnUse" xlink:href="#linearGradient9487"/><linearGradient id="linearGradient9545" x1="18" x2="0" y1="20" y2="2" gradientUnits="userSpaceOnUse" xlink:href="#linearGradient9487"/><linearGradient id="linearGradient9548" x1="1" x2="19" y1="1" y2="19" gradientUnits="userSpaceOnUse" xlink:href="#linearGradient9487"/><linearGradient id="linearGradient9550" x1="18" x2="0" y1="20" y2="2" gradientUnits="userSpaceOnUse" xlink:href="#linearGradient9487"/><linearGradient id="linearGradient9576" x1="1" x2="19" y1="1" y2="19" gradientUnits="userSpaceOnUse" xlink:href="#linearGradient9487"/><linearGradient id="linearGradient9578" x1="18" x2="0" y1="20" y2="2" gradientUnits="userSpaceOnUse" xlink:href="#linearGradient9487"/><radialGradient id="radialGradient2536" cx="7.829" cy="1.372" r="9.5" fx="7.829" fy="1.372" gradientTransform="matrix(0,1.5789474,-1.4736842,0,12.021549,-7.3616345)" gradientUnits="userSpaceOnUse" xlink:href="#linearGradient3169"/><linearGradient id="linearGradient2538" x1="10" x2="10" y1="3" y2="14" gradientTransform="translate(9.375e-2,-0.84375)" gradientUnits="userSpaceOnUse" xlink:href="#linearGradient4164"/><filter id="filter3315"><feGaussianBlur id="feGaussianBlur3317" stdDeviation=".63"/></filter></defs><metadata id="metadata7"/><g style="display:none" id="layer6"><path style="opacity:1;fill:#fff;fill-opacity:.79503108;stroke:#000;stroke-width:1;stroke-miterlimit:4;stroke-dasharray:none;stroke-opacity:.62732915" id="path8883" d="M 16,4.0000003 L 14.690704,8.0570466 L 18.485281,10 L 14.690704,11.942953 L 16,16 L 11.942953,14.690704 L 10,18.485281 L 8.0570466,14.690704 L 4.0000003,16 L 5.3092956,11.942953 L 1.514719,10 L 5.3092956,8.0570466 L 4.0000003,4.0000003 L 8.0570466,5.3092956 L 10,1.514719 L 11.942953,5.3092956 L 16,4.0000003 z"/></g><g style="display:none" id="layer4"><path style="fill:#000;fill-opacity:1;fill-rule:evenodd;stroke:none;stroke-width:1px;stroke-linecap:butt;stroke-linejoin:miter;stroke-opacity:1;filter:url(#filter4260)" id="path3916" d="M 8,19 C 5,19 1,16 1,13 C 1,7 4,1 10,1 C 16,1 19,7 19,13 C 19,16 15,19 12,19 C 11,19 9,19 8,19 z"/><path id="path3823" d="M 8,19 C 5,19 1,16 1,13 C 1,7 4,1 10,1 C 16,1 19,7 19,13 C 19,16 15,19 12,19 C 11,19 9,19 8,19 z" style="fill:url(#radialGradient3831);fill-opacity:1;fill-rule:evenodd;stroke:none;stroke-width:1px;stroke-linecap:butt;stroke-linejoin:miter;stroke-opacity:1"/><path id="path4160" d="M 9.65625,2.1875 C 4.5691315,2.5521607 1.5362041,9.993539 4,14 C 7.2732537,17.944529 17.088845,17.180375 17.0625,11.15625 C 16.909864,7.0774239 14.538629,1.698996 9.65625,2.1875 z" style="fill:url(#linearGradient4170);fill-opacity:1;fill-rule:evenodd;stroke:none;stroke-width:1px;stroke-linecap:butt;stroke-linejoin:miter;stroke-opacity:1"/></g><g id="layer1" style="display:none"><path style="fill:#000;fill-opacity:1;fill-rule:evenodd;stroke:none;stroke-width:1px;stroke-linecap:butt;stroke-linejoin:miter;stroke-opacity:1;display:inline;filter:url(#filter4260);enable-background:new" id="path2530" d="M 7.9999995,19 C 5,19 1,16 1,13 C 1,7 4,1 9.9999995,1 C 16,1 19,7 19,13 C 19,16 15,19 12,19 C 11,19 8.9999995,19 7.9999995,19 z"/><path id="path2532" d="M 7.9999995,19 C 5,19 1,16 1,13 C 1,7 4,1 9.9999995,1 C 16,1 19,7 19,13 C 19,16 15,19 12,19 C 11,19 8.9999995,19 7.9999995,19 z" style="fill:url(#radialGradient2536);fill-opacity:1;fill-rule:evenodd;stroke:none;stroke-width:1px;stroke-linecap:butt;stroke-linejoin:miter;stroke-opacity:1;display:inline;enable-background:new"/><path style="fill:#000;fill-opacity:1;fill-rule:evenodd;stroke:none;stroke-width:1px;stroke-linecap:butt;stroke-linejoin:miter;stroke-opacity:1;display:inline;enable-background:new" id="path2540" d="M 15,12 L 12,12 L 12,3.0000002 L 10,3.0000002 L 8.0000002,3.0000002 L 8.0000002,12 L 5.0000002,12 L 10,17 L 15,12 z"/><path id="path2534" d="M 9.6562495,2.1875 C 4.5691315,2.5521607 1.5362041,9.993539 4,14 C 7.2732537,17.944529 17.088845,17.180375 17.0625,11.15625 C 16.909864,7.0774239 14.538629,1.698996 9.6562495,2.1875 z" style="fill:url(#linearGradient2538);fill-opacity:1;fill-rule:evenodd;stroke:none;stroke-width:1px;stroke-linecap:butt;stroke-linejoin:miter;stroke-opacity:1;display:inline;enable-background:new"/></g><g id="layer13" style="display:none"><path id="path8478" d="M 14,7 L 14,10 L 5,10 L 5,12 L 5,14 L 14,14 L 14,17 L 19,12 L 14,7 z" style="opacity:.74928774;fill:#000;fill-opacity:1;fill-rule:evenodd;stroke:none;stroke-width:1px;stroke-linecap:butt;stroke-linejoin:miter;stroke-opacity:1;filter:url(#filter8572)"/><path style="fill:#ff9210;fill-opacity:1;fill-rule:evenodd;stroke:none;stroke-width:1px;stroke-linecap:butt;stroke-linejoin:miter;stroke-opacity:1" id="path8473" d="M 12,5 L 12,8 L 3,8 L 3,10 L 3,12 L 12,12 L 12,15 L 17,10 L 12,5 z"/></g><g style="display:none" id="layer3"><path id="path4264" d="M 15.0625,4.25 C 15.0625,4.25 13.456264,4.2672024 12.6875,5.125 C 12.62242,5.0840277 12.570054,5.0377341 12.5,5 C 11.659355,4.5471908 10.820154,4.5171775 10.59375,4.9375 C 10.565449,4.9900403 10.537644,5.0332629 10.53125,5.09375 L 9.6875,6.59375 C 7.082476,6.0164865 4.296154,7.2231611 2.96875,9.6875 C 1.3669433,12.661271 2.4949795,16.366943 5.46875,17.96875 C 8.4425206,19.570557 12.148193,18.44252 13.75,15.46875 C 15.051468,13.052561 14.543708,10.175928 12.71875,8.3125 L 13.625,6.59375 C 13.78643,6.2940543 13.561895,5.8330998 13.125,5.4375 C 13.045383,5.3654084 12.937789,5.3175327 12.84375,5.25 L 15.0625,4.25 z" style="opacity:1;fill:#000;fill-opacity:1;stroke:none;stroke-width:1;stroke-linecap:square;stroke-linejoin:miter;stroke-miterlimit:4;stroke-dasharray:none;stroke-opacity:1;filter:url(#filter5792)"/><path id="path3217" d="M 18.331573,11.657866 A 7.0749736,7.0749736 0 1 1 4.1816258,11.657866 A 7.0749736,7.0749736 0 1 1 18.331573,11.657866 z" transform="matrix(0.7614538,0.4101533,-0.4101533,0.7614538,4.5664032,-0.9135925)" style="opacity:1;fill:url(#radialGradient3233);fill-opacity:1;stroke:none;stroke-width:1;stroke-linecap:square;stroke-linejoin:miter;stroke-miterlimit:4;stroke-dasharray:none;stroke-opacity:1"/><path id="path3251" d="M 10.581833,4.9376249 L 9.3513731,7.2219865 C 9.1249687,7.6423091 9.623483,8.3509378 10.464128,8.803747 C 11.304773,9.2565562 12.170784,9.2829225 12.397189,8.8625999 L 13.627649,6.5782383 C 13.401244,6.9985608 12.535233,6.9721946 11.694588,6.5193853 C 10.853943,6.0665761 10.355429,5.3579474 10.581833,4.9376249 z" style="opacity:1;fill:url(#linearGradient3273);fill-opacity:1;stroke:none;stroke-width:1;stroke-linecap:square;stroke-linejoin:miter;stroke-miterlimit:4;stroke-dasharray:none;stroke-opacity:1"/><path style="opacity:1;fill:#a3a3a3;fill-opacity:1;stroke:none;stroke-width:1;stroke-linecap:square;stroke-linejoin:miter;stroke-miterlimit:4;stroke-dasharray:none;stroke-opacity:1" id="path3261" d="M 12,6 A 2,1 0 1 1 8,6 A 2,1 0 1 1 12,6 z" transform="matrix(0.7614538,0.4101533,-0.4101533,0.7614538,6.9511221,-2.9123247)"/><path id="path3309" d="M 12.45579,5.4071681 C 13.079466,4.249308 15.048968,4.2520623 15.048968,4.2520623" style="fill:none;fill-rule:evenodd;stroke:#000;stroke-width:.69999999;stroke-linecap:round;stroke-linejoin:miter;stroke-miterlimit:4;stroke-dasharray:none;stroke-opacity:1"/><path id="path3289" d="M 13.76548,1.122875 L 14.654472,2.7897345 L 13.76548,1.122875 z M 16.876951,1.178437 L 15.876836,2.8452965 L 16.876951,1.178437 z M 11.931935,2.6786105 L 13.598794,3.6787262 L 11.931935,2.6786105 z M 18.377125,3.1231064 L 16.654704,3.9565362 L 18.377125,3.1231064 z M 13.598794,5.1788998 L 11.931935,6.1234535 L 13.598794,5.1788998 z M 16.710266,5.1788998 L 18.266001,6.2901395 L 16.710266,5.1788998 z M 14.543348,6.0678916 L 13.543232,7.6791891 L 14.543348,6.0678916 z M 15.765712,6.1234535 L 16.599142,7.845875 L 15.765712,6.1234535 z" style="fill:none;fill-rule:evenodd;stroke:url(#radialGradient3318);stroke-width:.99013829px;stroke-linecap:butt;stroke-linejoin:miter;stroke-opacity:1"/></g><g style="opacity:1;display:none" id="layer2"><path id="path8058" d="M 10,19 L 5,17 L 3,15 L 1,10 L 3,5 L 5,3 L 10,1 L 15,3 L 17,5 L 19,10 L 17,15 L 15,17 L 10,19 z" style="fill:red;fill-opacity:1;fill-rule:evenodd;stroke:none;stroke-width:1px;stroke-linecap:butt;stroke-linejoin:miter;stroke-opacity:1;filter:url(#filter8136)"/><path style="fill:url(#linearGradient8056);fill-opacity:1;fill-rule:evenodd;stroke:none;stroke-width:1px;stroke-linecap:butt;stroke-linejoin:miter;stroke-opacity:1" id="path8024" d="M 10,19 L 5,17 L 3,15 L 1,10 L 3,5 L 5,3 L 10,1 L 15,3 L 17,5 L 19,10 L 17,15 L 15,17 L 10,19 z"/></g><g id="layer8" style="display:none"><path id="path8141" d="M 10,19 L 5,17 L 3,15 L 1,10 L 3,5.0000001 L 5,3.0000001 L 10,1.0000001 L 15,3.0000001 L 17,5.0000001 L 19,10 L 17,15 L 15,17 L 10,19 z" style="opacity:1;fill:#0800ff;fill-opacity:1;fill-rule:evenodd;stroke:none;stroke-width:1px;stroke-linecap:butt;stroke-linejoin:miter;stroke-opacity:1;display:inline;filter:url(#filter8136)"/><path style="opacity:1;fill:url(#linearGradient8155);fill-opacity:1;fill-rule:evenodd;stroke:none;stroke-width:1px;stroke-linecap:butt;stroke-linejoin:miter;stroke-opacity:1;display:inline" id="path8143" d="M 10,19 L 5,17 L 3,15 L 1,10 L 3,5.0000001 L 5,3.0000001 L 10,1.0000001 L 15,3.0000001 L 17,5.0000001 L 19,10 L 17,15 L 15,17 L 10,19 z"/></g><g id="layer9" style="display:inline"><path id="path8158" d="M 10,19 L 5,17 L 3,15 L 1,10 L 3,5 L 5,3 L 10,1 L 15,3 L 17,5 L 19,10 L 17,15 L 15,17 L 10,19 z" style="opacity:1;fill:#7f7f7f;fill-opacity:1;fill-rule:evenodd;stroke:none;stroke-width:1px;stroke-linecap:butt;stroke-linejoin:miter;stroke-opacity:1;display:inline;filter:url(#filter8136)"/><path style="opacity:1;fill:url(#linearGradient8172);fill-opacity:1;fill-rule:evenodd;stroke:none;stroke-width:1px;stroke-linecap:butt;stroke-linejoin:miter;stroke-opacity:1;display:inline" id="path8160" d="M 10,19 L 5,17 L 3,15 L 1,10 L 3,5 L 5,3 L 10,1 L 15,3 L 17,5 L 19,10 L 17,15 L 15,17 L 10,19 z"/></g><g style="display:inline" id="layer7"><path style="opacity:.92307691;fill:#fff;fill-opacity:1;fill-rule:evenodd;stroke:none;stroke-width:1px;stroke-linecap:butt;stroke-linejoin:miter;stroke-opacity:1" id="path8026" d="M 3,5 L 6,8 L 8,6 L 5,3 L 3,5 z"/><path style="opacity:.76068379;fill:#fff;fill-opacity:1;fill-rule:evenodd;stroke:none;stroke-width:1px;stroke-linecap:butt;stroke-linejoin:miter;stroke-opacity:1" id="path8028" d="M 5,3 L 8,6 L 10,5 L 10,1 L 5,3 z"/><path id="path8030" d="M 3,5 L 6,8 L 5,10 L 1,10 L 3,5 z" style="opacity:.76638172;fill:#fff;fill-opacity:1;fill-rule:evenodd;stroke:none;stroke-width:1px;stroke-linecap:butt;stroke-linejoin:miter;stroke-opacity:1"/><path id="path8032" d="M 17,5 L 14,8 L 12,6 L 15,3 L 17,5 z" style="opacity:.5071225;fill:#fff;fill-opacity:1;fill-rule:evenodd;stroke:none;stroke-width:1px;stroke-linecap:butt;stroke-linejoin:miter;stroke-opacity:1"/><path id="path8034" d="M 15,3 L 12,6 L 10,5 L 10,1 L 15,3 z" style="opacity:.68091167;fill:#fff;fill-opacity:1;fill-rule:evenodd;stroke:none;stroke-width:1px;stroke-linecap:butt;stroke-linejoin:miter;stroke-opacity:1"/><path style="opacity:.1766382;fill:#000;fill-opacity:1;fill-rule:evenodd;stroke:none;stroke-width:1px;stroke-linecap:butt;stroke-linejoin:miter;stroke-opacity:1" id="path8036" d="M 17,5 L 14,8 L 15,10 L 19,10 L 17,5 z"/><path style="opacity:.40455843;fill:#000;fill-opacity:1;fill-rule:evenodd;stroke:none;stroke-width:1px;stroke-linecap:butt;stroke-linejoin:miter;stroke-opacity:1" id="path8038" d="M 17,15 L 14,12 L 12,14 L 15,17 L 17,15 z"/><path style="opacity:.47863249;fill:#000;fill-opacity:1;fill-rule:evenodd;stroke:none;stroke-width:1px;stroke-linecap:butt;stroke-linejoin:miter;stroke-opacity:1" id="path8040" d="M 15,17 L 12,14 L 10,15 L 10,19 L 15,17 z"/><path id="path8042" d="M 17,15 L 14,12 L 15,10 L 19,10 L 17,15 z" style="opacity:.27065531;fill:#000;fill-opacity:1;fill-rule:evenodd;stroke:none;stroke-width:1px;stroke-linecap:butt;stroke-linejoin:miter;stroke-opacity:1"/><path style="opacity:.0854701;fill:#000;fill-opacity:1;fill-rule:evenodd;stroke:none;stroke-width:1px;stroke-linecap:butt;stroke-linejoin:miter;stroke-opacity:1" id="path8044" d="M 3,15 L 6,12 L 8,14 L 5,17 L 3,15 z"/><path style="opacity:.29344728;fill:#000;fill-opacity:1;fill-rule:evenodd;stroke:none;stroke-width:1px;stroke-linecap:butt;stroke-linejoin:miter;stroke-opacity:1" id="path8046" d="M 5,17 L 8,14 L 10,15 L 10,19 L 5,17 z"/><path id="path8048" d="M 3,15 L 6,12 L 5,10 L 1,10 L 3,15 z" style="opacity:.60683761;fill:#fff;fill-opacity:1;fill-rule:evenodd;stroke:none;stroke-width:1px;stroke-linecap:butt;stroke-linejoin:miter;stroke-opacity:1"/></g><g id="layer10" style="display:none"><rect style="opacity:.55263157;fill:#000;fill-opacity:1;stroke:#fff;stroke-width:1;stroke-miterlimit:4;stroke-dasharray:none;stroke-opacity:1" id="rect9581" width="18" height="18" x="1" y="1" rx="3" ry="3"/></g><g id="layer11" style="opacity:1;display:none"><path id="path8615" d="M 10,1 C 7.792,1 6,2.792 6,5 C 6,6.806144 7.1987541,8.3162117 8.84375,8.8125 C 8.629532,9.367502 8.128698,10 7,10 C 5,10 4,5 4,5 L 1,9 C 1,9 3,12 7,12 C 11,12 9,14 8,15 C 7,16 2,15 2,15 L 4,19 C 4,19 9,16 10,16 C 11,16 16,19 16,19 L 18,15 C 18,15 13,16 12,15 C 11,14 9,12 13,12 C 17,12 19,9 19,9 L 16,5 C 16,5 15,10 13,10 C 11.871302,10 11.370468,9.367502 11.15625,8.8125 C 12.801246,8.3162117 14,6.806144 14,5 C 14,2.792 12.208,1 10,1 z" style="opacity:1;fill:#000;fill-opacity:1;stroke:none;stroke-width:1;stroke-miterlimit:4;stroke-dasharray:none;stroke-opacity:1;filter:url(#filter8617)"/><path style="opacity:1;fill:#000;fill-opacity:1;stroke:none;stroke-width:1;stroke-miterlimit:4;stroke-dasharray:none;stroke-opacity:1" id="path8246" d="M 10,1 C 7.792,1 6,2.792 6,5 C 6,6.806144 7.1987541,8.3162117 8.84375,8.8125 C 8.629532,9.367502 8.128698,10 7,10 C 5,10 4,5 4,5 L 1,9 C 1,9 3,12 7,12 C 11,12 9,14 8,15 C 7,16 2,15 2,15 L 4,19 C 4,19 9,16 10,16 C 11,16 16,19 16,19 L 18,15 C 18,15 13,16 12,15 C 11,14 9,12 13,12 C 17,12 19,9 19,9 L 16,5 C 16,5 15,10 13,10 C 11.871302,10 11.370468,9.367502 11.15625,8.8125 C 12.801246,8.3162117 14,6.806144 14,5 C 14,2.792 12.208,1 10,1 z"/></g><g id="layer5" style="display:none"><path id="path3313" d="M 7,1 C 4.792,1 3,2.792 3,5 C 3,7.208 4.792,9 7,9 C 7.2014599,9 7.4002616,8.9662913 7.59375,8.9375 C 8.3505379,11.578615 9.4073304,16 8,16 C 6,16 4,13 4,13 L 1,16 C 1,16 2,17 6,18 C 8.6333333,18.658333 10.381528,18.019539 11.28125,17.21875 C 12.456319,18.139468 15,19 15,19 L 17,16 C 17,16 16,16 15,16 C 14.440984,16 13.086167,15.713114 11.875,15.4375 C 11.45195,14.158962 10,11.855488 10,11 C 10,10 19,14 19,14 L 19,10 C 19,10 12,10 12,9 C 12,8 19,8 19,8 L 19,3 C 19,3 16,6 11,6 L 10.84375,6.03125 C 10.931328,5.7023377 11,5.3563712 11,5 C 11,2.792 9.208,1 7,1 z" transform="matrix(-1,0,0,1,20,0)" style="opacity:1;fill:#000;fill-opacity:1;stroke:none;stroke-width:1;stroke-miterlimit:4;stroke-dasharray:none;stroke-opacity:1;filter:url(#filter3315)"/><path style="opacity:1;fill:#000;fill-opacity:1;stroke:none;stroke-width:1;stroke-miterlimit:4;stroke-dasharray:none;stroke-opacity:1" id="path3303" d="M 13,1 C 15.208,1 17,2.792 17,5 C 17,7.208 15.208,9 13,9 C 12.79854,9 12.599738,8.9662913 12.40625,8.9375 C 11.649462,11.578615 10.59267,16 12,16 C 14,16 16,13 16,13 L 19,16 C 19,16 18,17 14,18 C 11.366667,18.658333 9.618472,18.019539 8.71875,17.21875 C 7.543681,18.139468 5,19 5,19 L 3,16 C 3,16 4,16 5,16 C 5.559016,16 6.913833,15.713114 8.125,15.4375 C 8.54805,14.158962 10,11.855488 10,11 C 10,10 1,14 1,14 L 1,10 C 1,10 8,10 8,9 C 8,8 1,8 1,8 L 1,3 C 1,3 4,6 9,6 L 9.15625,6.03125 C 9.068672,5.7023377 9,5.3563712 9,5 C 9,2.792 10.792,1 13,1 z"/></g><g id="layer12" style="display:none"><path style="opacity:1;fill:#000;fill-opacity:1;stroke:none;stroke-width:1;stroke-miterlimit:4;stroke-dasharray:none;stroke-opacity:1;filter:url(#filter8413)" id="rect8344" d="M 4,1.34375 L 4,16.34375 L 6,16.34375 L 6,18.34375 L 7,19.34375 L 16,16.34375 L 16,1.34375 L 4,1.34375 z"/><rect style="opacity:1;fill:#000;fill-opacity:1;stroke:none;stroke-width:1;stroke-miterlimit:4;stroke-dasharray:none;stroke-opacity:1" id="rect8295" width="12" height="15" x="4" y="1.344"/><path id="path8299" d="M 16,1.34375 L 7,4.34375 L 7,19.34375 L 16,16.34375 L 16,1.34375 z" style="fill:#927341;fill-opacity:1;fill-rule:evenodd;stroke:none;stroke-width:1px;stroke-linecap:butt;stroke-linejoin:miter;stroke-opacity:1"/><path style="fill:#c5a97c;fill-opacity:1;fill-rule:evenodd;stroke:none;stroke-width:1px;stroke-linecap:butt;stroke-linejoin:miter;stroke-opacity:1" id="path8301" d="M 12,1.34375 L 6,3.34375 L 7,4.34375 L 16,1.34375 L 12,1.34375 z"/><path style="fill:#ac874c;fill-opacity:1;fill-rule:evenodd;stroke:none;stroke-width:1px;stroke-linecap:butt;stroke-linejoin:miter;stroke-opacity:1" id="path8303" d="M 6,3.34375 L 6,18.34375 L 7,19.34375 L 7,4.34375 L 6,3.34375 z"/><path style="fill:#7b6136;fill-opacity:1;fill-rule:evenodd;stroke:none;stroke-width:1px;stroke-linecap:butt;stroke-linejoin:miter;stroke-opacity:1" id="path8324" d="M 15,9.6875 L 8,12.03125 L 8,17.6875 L 9,17.34375 L 9,12.6875 L 15,10.6875 L 15,9.6875 z"/><path style="fill:#6c5530;fill-opacity:1;fill-rule:evenodd;stroke:none;stroke-width:1px;stroke-linecap:butt;stroke-linejoin:miter;stroke-opacity:1" id="path8335" d="M 15,3 L 8,5.34375 L 8,11 L 9,10.65625 L 9,6.03125 L 15,4.03125 L 15,3 z"/><path style="fill:#ab864c;fill-opacity:1;fill-rule:evenodd;stroke:none;stroke-width:1px;stroke-linecap:butt;stroke-linejoin:miter;stroke-opacity:1" id="path8608" d="M 15,3 L 14,4.15625 L 14,7.96875 L 9.28125,9.53125 L 8,11 L 15,8.65625 L 15,3 z"/><path id="path8613" d="M 15,9.84375 L 14,11 L 14,14.8125 L 9.28125,16.375 L 8,17.84375 L 15,15.5 L 15,9.84375 z" style="fill:#ab864c;fill-opacity:1;fill-rule:evenodd;stroke:none;stroke-width:1px;stroke-linecap:butt;stroke-linejoin:miter;stroke-opacity:1"/></g><g id="layer14" style="display:none"><rect id="rect8591" width="12" height="15" x="4" y="1.344" style="opacity:1;fill:#000;fill-opacity:1;stroke:none;stroke-width:1;stroke-miterlimit:4;stroke-dasharray:none;stroke-opacity:1;display:inline;filter:url(#filter8593)"/><rect style="opacity:1;fill:#927341;fill-opacity:1;stroke:none;stroke-width:1;stroke-miterlimit:4;stroke-dasharray:none;stroke-opacity:1;display:inline" id="rect8579" width="12" height="15" x="4" y="1.344"/><path style="fill:#6c5530;fill-opacity:1;fill-rule:evenodd;stroke:none;stroke-width:1px;stroke-linecap:butt;stroke-linejoin:miter;stroke-opacity:1" id="path8597" d="M 15,2 L 5,2 L 5,8 L 6,8 L 6,3 L 15,3 L 15,2 z"/><path id="path8599" d="M 15,9 L 5,9 L 5,15 L 6,15 L 6,10 L 15,10 L 15,9 z" style="fill:#6c5530;fill-opacity:1;fill-rule:evenodd;stroke:none;stroke-width:1px;stroke-linecap:butt;stroke-linejoin:miter;stroke-opacity:1"/><path style="fill:#bd9d6a;fill-opacity:1;fill-rule:evenodd;stroke:none;stroke-width:1px;stroke-linecap:butt;stroke-linejoin:miter;stroke-opacity:1" id="path8601" d="M 15,2 L 14,3 L 14,7 L 6,7 L 5,8 L 15,8 L 15,2 z"/><path id="path8606" d="M 15,9 L 14,10 L 14,14 L 6,14 L 5,15 L 15,15 L 15,9 z" style="fill:#bd9d6a;fill-opacity:1;fill-rule:evenodd;stroke:none;stroke-width:1px;stroke-linecap:butt;stroke-linejoin:miter;stroke-opacity:1"/></g><g id="layer15" style="display:none"><path id="path8682" d="M 10,1 L 12,5.0000002 L 16.363961,3.6360391 L 14.949748,7.8786799 L 19,10 L 15,12 L 16.363961,16.363961 L 12.12132,14.949748 L 9.9999998,19 L 7.9999998,15 L 3.6360388,16.363961 L 5.0502525,12.12132 L 1,9.9999998 L 5.0000002,7.9999998 L 3.6360391,3.6360388 L 7.8786799,5.0502525 L 10,1 z" transform="matrix(0.9683498,-0.249597,0.249597,0.9683498,-2.1794679,2.8124718)" style="opacity:1;fill:#000;fill-opacity:1;stroke:none;stroke-width:1;stroke-miterlimit:4;stroke-dasharray:none;stroke-opacity:1;filter:url(#filter8704)"/><path style="opacity:1;fill:#ff0e0e;fill-opacity:1;stroke:none;stroke-width:1;stroke-miterlimit:4;stroke-dasharray:none;stroke-opacity:1" id="path8644" d="M 10,1 L 12,5.0000002 L 16.363961,3.6360391 L 14.949748,7.8786799 L 19,10 L 15,12 L 16.363961,16.363961 L 12.12132,14.949748 L 9.9999998,19 L 7.9999998,15 L 3.6360388,16.363961 L 5.0502525,12.12132 L 1,9.9999998 L 5.0000002,7.9999998 L 3.6360391,3.6360388 L 7.8786799,5.0502525 L 10,1 z" transform="matrix(0.9683498,-0.249597,0.249597,0.9683498,-2.1794679,2.8124718)"/><path id="path8646" d="M 10,1 L 12,5.0000002 L 16.363961,3.6360391 L 14.949748,7.8786799 L 19,10 L 15,12 L 16.363961,16.363961 L 12.12132,14.949748 L 9.9999998,19 L 7.9999998,15 L 3.6360388,16.363961 L 5.0502525,12.12132 L 1,9.9999998 L 5.0000002,7.9999998 L 3.6360391,3.6360388 L 7.8786799,5.0502525 L 10,1 z" transform="matrix(0.8030964,-0.2070021,0.2070021,0.8030964,-0.1009851,4.0390569)" style="opacity:1;fill:#ffb40e;fill-opacity:1;stroke:none;stroke-width:1;stroke-miterlimit:4;stroke-dasharray:none;stroke-opacity:1"/><path style="opacity:1;fill:#ffef0e;fill-opacity:1;stroke:none;stroke-width:1;stroke-miterlimit:4;stroke-dasharray:none;stroke-opacity:1" id="path8648" d="M 10,1 L 12,5.0000002 L 16.363961,3.6360391 L 14.949748,7.8786799 L 19,10 L 15,12 L 16.363961,16.363961 L 12.12132,14.949748 L 9.9999998,19 L 7.9999998,15 L 3.6360388,16.363961 L 5.0502525,12.12132 L 1,9.9999998 L 5.0000002,7.9999998 L 3.6360391,3.6360388 L 7.8786799,5.0502525 L 10,1 z" transform="matrix(0.6455666,-0.166398,0.166398,0.6455666,1.8803535,5.2083138)"/><text style="font-size:39.15373993px;font-style:normal;font-weight:400;fill:#000;fill-opacity:1;stroke:none;stroke-width:1px;stroke-linecap:butt;stroke-linejoin:miter;stroke-opacity:1;font-family:Bitstream Vera Sans" id="text8748" x="-3.914" y="15.293" transform="matrix(0.9103337,-0.3754795,0.3597599,0.9501104,0,0)" xml:space="preserve"><tspan id="tspan8750" x="-3.914" y="15.293" style="font-size:7.83074808px;font-weight:700;-inkscape-font-specification:Bitstream Vera Sans Bold">BAM</tspan></text></g></svg>